HIERARCHY
ROOT Hips
{
	OFFSET -29.380051 91.728088 330.575287
	CHANNELS 6 Xposition Yposition Zposition Zrotation Yrotation Xrotation 
	JOINT LeftUpLeg
	{
		OFFSET 0.103456 1.857840 10.548504
		CHANNELS 3 Zrotation Yrotation Xrotation
		JOINT LeftLeg
		{
			OFFSET 43.500004 -0.000034 -0.000008
			CHANNELS 3 Zrotation Yrotation Xrotation
			JOINT LeftFoot
			{
				OFFSET 42.372196 0.000008 -0.000002
				CHANNELS 3 Zrotation Yrotation Xrotation
				JOINT LeftToe
				{
					OFFSET 17.300014 0.000003 0.000004
					CHANNELS 3 Zrotation Yrotation Xrotation
					End Site
					{
						OFFSET 0.000000 0.000000 0.000000
					}
				}
			}
		}
	}
	JOINT RightUpLeg
	{
		OFFSET 0.103459 1.857840 -10.548506
		CHANNELS 3 Zrotation Yrotation Xrotation
		JOINT RightLeg
		{
			OFFSET 43.500042 -0.000034 0.000008
			CHANNELS 3 Zrotation Yrotation Xrotation
			JOINT RightFoot
			{
				OFFSET 42.372265 -0.000015 0.000013
				CHANNELS 3 Zrotation Yrotation Xrotation
				JOINT RightToe
				{
					OFFSET 17.299982 -0.000008 0.000011
					CHANNELS 3 Zrotation Yrotation Xrotation
					End Site
					{
						OFFSET 0.000000 0.000000 0.000000
					}
				}
			}
		}
	}
	JOINT Spine
	{
		OFFSET 6.901965 -2.603744 0.000002
		CHANNELS 3 Zrotation Yrotation Xrotation
		JOINT Spine1
		{
			OFFSET 12.588102 0.000003 0.000000
			CHANNELS 3 Zrotation Yrotation Xrotation
			JOINT Spine2
			{
				OFFSET 12.343206 -0.000003 0.000000
				CHANNELS 3 Zrotation Yrotation Xrotation
				JOINT Neck
				{
					OFFSET 25.832899 0.000011 -0.000003
					CHANNELS 3 Zrotation Yrotation Xrotation
					JOINT Head
					{
						OFFSET 11.766600 0.000020 0.000002
						CHANNELS 3 Zrotation Yrotation Xrotation
						End Site
						{
							OFFSET 0.000000 0.000000 0.000000
						}
					}
				}
				JOINT LeftShoulder
				{
					OFFSET 19.745911 -1.480356 6.000103
					CHANNELS 3 Zrotation Yrotation Xrotation
					JOINT LeftArm
					{
						OFFSET 11.284127 -0.000002 -0.000032
						CHANNELS 3 Zrotation Yrotation Xrotation
						JOINT LeftForeArm
						{
							OFFSET 33.000050 0.000004 0.000036
							CHANNELS 3 Zrotation Yrotation Xrotation
							JOINT LeftHand
							{
								OFFSET 25.200010 -0.000005 -0.000001
								CHANNELS 3 Zrotation Yrotation Xrotation
								End Site
								{
									OFFSET 0.000000 0.000000 0.000000
								}
							}
						}
					}
				}
				JOINT RightShoulder
				{
					OFFSET 19.746094 -1.480362 -6.000076
					CHANNELS 3 Zrotation Yrotation Xrotation
					JOINT RightArm
					{
						OFFSET 11.284138 -0.000014 -0.000009
						CHANNELS 3 Zrotation Yrotation Xrotation
						JOINT RightForeArm
						{
							OFFSET 33.000099 0.000006 0.000015
							CHANNELS 3 Zrotation Yrotation Xrotation
							JOINT RightHand
							{
								OFFSET 25.199768 0.000152 0.000415
								CHANNELS 3 Zrotation Yrotation Xrotation
								End Site
								{
									OFFSET 0.000000 0.000000 0.000000
								}
							}
						}
					}
				}
			}
		}
	}
}
MOTION
Frames: 14
Frame Time: 0.033333
-29.380051 91.728088 -330.575287 89.230479 -7.627257 -88.380735 -177.231128 -0.851707 179.361492 -18.973291 -3.752139 -13.689292 85.325476 8.813669 -4.399219 21.454557 0.003099 1.4e-05 -175.684965 4.201198 -168.99601 -18.179513 2.103385 1.982795 86.950603 -1.112096 1.796929 21.454553 -0.003095 0.0 7.22956 -0.121354 -0.19813 4.431078 -0.226076 -0.366603 4.112981 -0.228429 -0.365195 -8.150672 3.564643 2.565867 0.53647 -4.819647 4.65726 45.826796 -85.303052 132.648844 -2.121791 14.68699 -31.299618 -21.877429 -20.451637 1.469274 16.0207 2.668963 5.630567 -84.053927 82.551312 98.385924 -9.602681 -6.696856 19.929215 -15.758151 15.636859 -1.078945 14.33643 -4.958289 8.445467 
-29.38039 91.728012 -330.579895 89.230466 -7.627259 -88.384827 -177.227781 -0.851693 179.361492 -18.973296 -3.752144 -13.689304 85.327197 8.81365 -4.401159 21.45456 0.003109 1.6e-05 -175.681714 4.201202 -168.99601 -18.176206 2.103389 1.980126 86.952195 -1.110104 1.796927 21.454558 -0.003083 -1e-06 7.229551 -0.121357 -0.198126 4.431087 -0.226082 -0.366624 4.112986 -0.22844 -0.365182 -8.165337 3.568426 2.570464 0.553001 -4.8294 4.664479 45.73716 -85.310565 132.73735 -2.138994 14.684022 -31.299718 -21.882854 -20.455233 1.469271 16.0207 2.680992 5.636621 -84.070333 82.546176 98.369949 -9.614351 -6.698236 19.931832 -15.758155 15.636861 -1.07895 14.336427 -4.965826 8.445467 
-29.38076 91.727402 -330.605011 89.230472 -7.619564 -88.403159 -177.214107 -0.851704 179.361492 -18.973287 -3.75214 -13.689294 85.337674 8.813662 -4.414011 21.454558 0.003111 1.7e-05 -175.665854 4.201193 -168.99601 -18.159069 2.103387 1.968713 86.961846 -1.101313 1.802462 21.454553 -0.003088 1e-06 7.229548 -0.121359 -0.19813 4.431079 -0.23044 -0.366608 4.112991 -0.232777 -0.36518 -8.230001 3.573848 2.605043 0.59262 -4.862455 4.705813 45.410185 -85.337715 133.06065 -2.215505 14.66847 -31.289981 -21.912 -20.472618 1.469274 16.021542 2.731443 5.664082 -84.122399 82.541122 98.318087 -9.655886 -6.7071 19.94141 -15.764237 15.636859 -1.07894 14.343679 -5.007905 8.445468 
-29.37912 91.725906 -330.628815 89.230472 -7.611344 -88.414531 -177.205611 -0.851701 179.361492 -18.973289 -3.75215 -13.689299 85.347278 8.813645 -4.428698 21.45456 0.003118 1.8e-05 -175.657972 4.201202 -168.995997 -18.156733 2.103393 1.960314 86.978361 -1.094083 1.810847 21.45455 -0.003095 -0.0 7.229555 -0.121357 -0.198133 4.431076 -0.235706 -0.36661 4.112982 -0.238049 -0.365192 -8.254319 3.546708 2.641797 0.552292 -4.870677 4.736189 45.591513 -85.327559 132.881166 -2.221649 14.64726 -31.258634 -21.93179 -20.472252 1.469268 16.04603 2.73448 5.646505 -84.107195 82.57767 98.329794 -9.662609 -6.71404 19.956959 -15.770922 15.636861 -1.07894 14.367042 -5.04364 8.437846 
-29.375469 91.72435 -330.652313 89.223929 -7.601299 -88.415255 -177.197906 -0.851702 179.361492 -18.970161 -3.752142 -13.689291 85.347291 8.807885 -4.447578 21.454558 0.003119 1.9e-05 -175.655731 4.201194 -168.99601 -18.164572 2.103387 1.960504 87.000265 -1.092692 1.820296 21.45455 -0.003083 2e-06 7.229561 -0.125432 -0.198138 4.431078 -0.243743 -0.37231 4.112987 -0.24613 -0.370844 -8.259907 3.50481 2.661795 0.483497 -4.880629 4.746722 46.117874 -85.290396 132.360569 -2.17287 14.620191 -31.220675 -21.944641 -20.456147 1.469282 16.07136 2.722147 5.631958 -84.097093 82.623658 98.335395 -9.655627 -6.711409 19.965097 -15.77537 15.632636 -1.078951 14.37254 -5.085865 8.411079 
-29.369061 91.724213 -330.678894 89.215275 -7.5839 -88.404006 -177.191472 -0.851695 179.368977 -18.955424 -3.752138 -13.6893 85.342893 8.800547 -4.471971 21.45456 0.00311 1.9e-05 -175.651415 4.201199 -168.995997 -18.161924 2.103393 1.968993 87.019349 -1.097617 1.827358 21.454551 -0.003092 1e-06 7.229559 -0.13051 -0.198147 4.436615 -0.253756 -0.379372 4.118526 -0.256188 -0.377844 -8.292263 3.471274 2.664939 0.431888 -4.888345 4.743194 46.483641 -85.255255 131.998965 -2.119074 14.600899 -31.178058 -21.965871 -20.444042 1.469271 16.06727 2.731167 5.669326 -84.166468 82.643609 98.263725 -9.646602 -6.687745 19.935627 -15.779644 15.623098 -1.078953 14.345463 -5.121824 8.397692 
-29.360189 91.726288 -330.709198 89.208657 -7.554462 -88.38801 -177.192101 -0.851704 179.385179 -18.932839 -3.752145 -13.689297 85.338255 8.797504 -4.48441 21.45456 0.003109 1.6e-05 -175.648601 4.201198 -168.99601 -18.140713 2.103394 1.98246 87.031111 -1.105865 1.834985 21.454553 -0.003093 -1e-06 7.229561 -0.135131 -0.198138 4.446318 -0.262778 -0.389062 4.128232 -0.265265 -0.387472 -8.350054 3.460408 2.67109 0.390064 -4.882454 4.74771 46.595482 -85.236506 131.888767 -2.050746 14.586321 -31.093825 -22.00077 -20.45073 1.469267 16.048272 2.753551 5.742431 -84.260731 82.630652 98.170234 -9.648828 -6.646361 19.872703 -15.788541 15.606484 -1.078937 14.327269 -5.127225 8.40149 
-29.351 91.728737 -330.741913 89.207209 -7.517969 -88.381979 -177.200611 -0.851707 179.399372 -18.916567 -3.752136 -13.693744 85.337538 8.798253 -4.495145 21.45456 0.003098 1.5e-05 -175.652426 4.194899 -169.000081 -18.117102 2.103384 1.991427 87.041602 -1.11004 1.847856 21.454551 -0.003095 0.0 7.229551 -0.13873 -0.198129 4.457096 -0.269617 -0.401425 4.138986 -0.272163 -0.399781 -8.371381 3.481411 2.687667 0.328475 -4.895925 4.777287 46.850887 -85.213201 131.636378 -1.905433 14.556472 -30.967565 -22.044068 -20.468783 1.46927 16.044499 2.763615 5.776418 -84.278988 82.620652 98.15294 -9.651169 -6.60184 19.812238 -15.800755 15.60383 -1.078953 14.344502 -5.127619 8.401945 
-29.342649 91.730164 -330.775208 89.208698 -7.478466 -88.393508 -177.216921 -0.855118 179.396148 -18.914899 -3.752146 -13.698932 85.345256 8.800369 -4.506231 21.454557 0.003106 1.6e-05 -175.667575 4.189098 -169.007867 -18.104361 2.105634 1.992887 87.05251 -1.10905 1.854894 21.454553 -0.003083 2e-06 7.229556 -0.142649 -0.19595 4.463131 -0.276307 -0.411014 4.145046 -0.278933 -0.409329 -8.317896 3.514335 2.701793 0.268376 -4.954002 4.81582 47.245511 -85.181673 131.246224 -1.717003 14.51039 -30.873708 -22.069875 -20.488433 1.469262 16.06063 2.755814 5.786729 -84.22518 82.631137 98.205922 -9.6426 -6.560954 19.781717 -15.819077 15.622697 -1.078944 14.377849 -5.147381 8.375585 
-29.333111 91.731789 -330.81131 89.213848 -7.43855 -88.421635 -177.230117 -0.861212 179.378103 -18.913692 -3.752149 -13.705459 85.355433 8.802879 -4.518802 21.454558 0.003101 1.6e-05 -175.682151 4.182605 -169.026022 -18.087748 2.114344 1.990991 87.055597 -1.109073 1.842821 21.454551 -0.003085 0.0 7.229559 -0.145771 -0.193544 4.460213 -0.283645 -0.411378 4.142121 -0.286268 -0.409652 -8.213009 3.516051 2.708767 0.260099 -5.00556 4.831524 47.322382 -85.172083 131.170259 -1.590149 14.462861 -30.857743 -22.06454 -20.494918 1.46927 16.080471 2.745359 5.789672 -84.172294 82.646088 98.257722 -9.62383 -6.521142 19.764728 -15.848587 15.643928 -1.078948 14.38659 -5.150271 8.352439 
-29.32066 91.734848 -330.854187 89.222556 -7.399364 -88.460908 -177.230937 -0.871198 179.366683 -18.897909 -3.752146 -13.722734 85.361683 8.81201 -4.536059 21.45456 0.003114 1.7e-05 -175.684241 4.168596 -169.052974 -18.05054 2.126466 1.988318 87.038255 -1.117259 1.790893 21.454551 -0.003097 0.0 7.229564 -0.147394 -0.19161 4.453654 -0.289238 -0.401011 4.135558 -0.291785 -0.399267 -8.079324 3.458463 2.724494 0.286721 -4.97716 4.816703 47.051162 -85.192376 131.438535 -1.546168 14.423032 -30.860775 -22.036232 -20.486442 1.469275 16.078873 2.749588 5.778582 -84.06073 82.661579 98.368084 -9.586509 -6.488966 19.731833 -15.885292 15.65595 -1.078938 14.370143 -5.113323 8.369826 
-29.304649 91.738724 -330.902191 89.235479 -7.362678 -88.493249 -177.226402 -0.886702 179.366464 -18.879423 -3.749298 -13.743573 85.365337 8.822292 -4.560423 21.454558 0.003094 1.3e-05 -175.67237 4.143289 -169.072413 -18.001433 2.13236 1.987391 87.021248 -1.125338 1.749035 21.454557 -0.003101 -1e-06 7.229561 -0.148401 -0.190856 4.448604 -0.291686 -0.387261 4.13051 -0.294148 -0.385495 -7.945107 3.39137 2.751974 0.310075 -4.901337 4.800731 46.771083 -85.215619 131.715308 -1.525889 14.3916 -30.820033 -22.021853 -20.477491 1.46927 16.071572 2.752987 5.741534 -83.883957 82.679645 98.543907 -9.536422 -6.469925 19.683668 -15.910369 15.665189 -1.078934 14.355584 -5.081025 8.412249 
-29.287451 91.742027 -330.952698 89.245827 -7.33025 -88.498426 -177.221402 -0.903196 179.362926 -18.869258 -3.739535 -13.747619 85.368554 8.820156 -4.588411 21.454557 0.003117 1.8e-05 -175.650896 4.115795 -169.066716 -17.955387 2.132293 1.990052 87.011815 -1.131977 1.722015 21.454553 -0.00309 1e-06 7.229558 -0.1489 -0.192273 4.447136 -0.29495 -0.381058 4.129033 -0.297377 -0.379269 -7.852885 3.367505 2.774384 0.34806 -4.855784 4.801022 46.64675 -85.223856 131.83836 -1.490422 14.3662 -30.755362 -22.03872 -20.474583 1.469271 16.06203 2.738188 5.694273 -83.754662 82.691502 98.67256 -9.497814 -6.453845 19.645837 -15.912285 15.664648 -1.078941 14.362824 -5.09441 8.430389 
-29.27253 91.745422 -331.002808 89.248743 -7.299958 -88.478865 -177.217072 -0.914411 179.345659 -18.857947 -3.722438 -13.730279 85.366826 8.803168 -4.615796 21.454558 0.003115 1.7e-05 -175.624886 4.096294 -169.054791 -17.913844 2.13734 2.002624 87.006167 -1.144231 1.702689 21.454551 -0.003089 1e-06 7.229549 -0.149003 -0.194962 4.447236 -0.30268 -0.385196 4.129135 -0.305137 -0.383376 -7.800343 3.383929 2.77475 0.41526 -4.862159 4.8015 46.727315 -85.210626 131.759062 -1.424026 14.334467 -30.701352 -22.064315 -20.474274 1.469283 16.039782 2.740073 5.700135 -83.769955 82.699992 98.656427 -9.480042 -6.429952 19.631839 -15.899968 15.648897 -1.078949 14.378631 -5.138885 8.416606 
